Coordinates
version=1
nRows=14
nColumns=24
inDegrees=yes

Units are S.I. units (second, meters, Newtons, ...)
If the header above contains a line with 'inDegrees', this indicates whether rotational values are in degrees (yes) or radians (no).

endheader
time	pelvis_tilt	pelvis_list	pelvis_rotation	pelvis_tx	pelvis_ty	pelvis_tz	hip_flexion_r	hip_adduction_r	hip_rotation_r	knee_angle_r	ankle_angle_r	subtalar_angle_r	mtp_angle_r	hip_flexion_l	hip_adduction_l	hip_rotation_l	knee_angle_l	ankle_angle_l	subtalar_angle_l	mtp_angle_l	lumbar_extension	lumbar_bending	lumbar_rotation
      1.00000000	      4.84791655	     -0.04402172	      0.19723698	      0.59295875	      1.04453059	      0.04561139	     -2.64944228	      1.88900504	     -3.60196097	    -11.69530393	      7.97824909	     -0.00000117	      0.00000000	     18.76092302	     -3.11329001	     -4.24411106	    -57.76323808	      1.41175638	     -0.00000132	      0.00000000	    -16.43305514	      1.05983008	      1.18593145
      1.01700000	      4.90321034	     -0.07013389	     -0.05918357	      0.59105018	      1.04446397	      0.04670944	     -4.12431129	      2.00699078	     -3.38934320	    -10.94037649	      8.37260393	     -0.00000119	      0.00000000	     19.44880112	     -3.14199599	     -4.66982649	    -53.50381626	      1.65342743	     -0.00000243	      0.00000000	    -16.57797522	      0.92976506	      1.52645911
      1.03300000	      4.91576564	     -0.26811594	     -0.23167867	      0.58907896	      1.04394008	      0.04788537	     -5.63737894	      2.31868137	     -3.28448446	    -10.02414337	      8.68621584	     -0.00000122	      0.00000000	     19.97256551	     -3.49457424	     -5.38981440	    -48.73560074	      1.59616656	     -0.00000371	      0.00000000	    -16.71035673	      1.01494282	      1.84456472
      1.05000000	      5.06925120	     -0.61659114	     -0.35598599	      0.58714105	      1.04327199	      0.04860033	     -7.28429994	      2.75369439	     -3.18560351	     -9.16309449	      8.98369108	     -0.00000122	      0.00000000	     20.10610260	     -4.01863017	     -6.38374532	    -43.47785034	      1.25309066	     -0.00000497	      0.00000000	    -17.04088891	      1.25811409	      1.97961043
      1.06700000	      4.94803893	     -1.20455356	     -0.64635138	      0.58503876	      1.04157990	      0.04946092	     -8.54594747	      3.40055021	     -2.85697495	     -8.47011177	      9.31605175	     -0.00000122	      0.00000000	     20.36996174	     -4.80401214	     -7.65097109	    -37.97344921	      0.72009594	     -0.00000592	      0.00000000	    -16.90770631	      1.78327528	      2.46471450
      1.08300000	      4.85363998	     -1.59464407	     -0.89250642	      0.58333166	      1.03965838	      0.04973005	     -9.89612384	      3.78187044	     -2.42524661	     -7.74427731	      9.69616620	     -0.00000124	      0.00000000	     20.32267193	     -5.19988676	     -8.97502288	    -32.05059793	     -0.05633017	     -0.00000657	      0.00000000	    -16.96265225	      1.98513386	      2.64568941
      1.10000000	      4.71238691	     -2.16163297	     -1.15693895	      0.58205492	      1.03723822	      0.05022909	    -11.30507782	      4.34245975	     -1.94585906	     -6.88675030	      9.97881445	     -0.00000109	      0.00000000	     20.30073066	     -5.63970604	     -9.98092823	    -26.29553639	     -0.75127624	     -0.00000623	      0.00000000	    -16.82594475	      2.45479954	      3.03956902
      1.11700000	      4.51168013	     -2.63666246	     -1.40859184	      0.58077444	      1.03444047	      0.05045170	    -12.51033437	      4.77871198	     -1.35638275	     -6.36132286	     10.43750112	     -0.00000103	      0.00000000	     20.20500643	     -5.77469923	    -10.38280723	    -20.48501753	     -1.35075390	     -0.00000548	      0.00000000	    -16.71026182	      2.82578839	      3.12045995
      1.13300000	      4.36587935	     -3.19399270	     -1.89462978	      0.57921023	      1.03137445	      0.05042782	    -13.64334694	      5.19078191	     -0.49824123	     -6.09881722	     10.98346970	     -0.00000099	      0.00000000	     20.05118633	     -5.96566062	    -10.21410066	    -15.07422281	     -1.65458902	     -0.00000431	      0.00000000	    -16.68946922	      3.16013413	      3.61338712
      1.15000000	      4.43207118	     -3.69795471	     -2.12931876	      0.57840777	      1.02847156	      0.04994237	    -15.06731089	      5.56023746	      0.12347563	     -5.77586788	     11.46447372	     -0.00000089	      0.00000000	     19.51227839	     -5.99557175	     -9.19054769	     -9.88998367	     -1.76086804	     -0.00000323	      0.00000000	    -16.81029222	      3.59171393	      3.95258580
      1.16700000	      4.38947460	     -4.03932353	     -2.47391313	      0.57802558	      1.02517611	      0.04976755	    -16.43613104	      5.72857984	      0.68226267	     -5.39544836	     11.91995431	     -0.00000087	      0.00000000	     19.15316816	     -6.01172097	     -7.97206391	     -5.66669495	     -1.55137101	     -0.00000222	      0.00000000	    -16.91189501	      3.62572953	      3.90422529
      1.18300000	      4.50629543	     -4.38350401	     -3.01807286	      0.57747661	      1.02229013	      0.04936362	    -17.71840772	      5.76440233	      1.37964907	     -5.51992361	     12.45107482	     -0.00000073	      0.00000000	     18.70177964	     -6.16224419	     -6.95614580	     -2.56452710	     -1.15097702	     -0.00000137	      0.00000000	    -17.03060731	      3.74409644	      4.54075246
      1.20000000	      4.39877926	     -4.49638876	     -3.29578430	      0.57777340	      1.01925792	      0.04887402	    -18.83438622	      5.65133747	      1.73864739	     -5.53422945	     12.83276777	     -0.00000050	      0.00000000	     18.62383084	     -6.07910489	     -5.97670735	     -0.69682209	     -0.78932660	     -0.00000094	      0.00000000	    -16.92164943	      3.52673880	      4.26463660
      1.21700000	      4.52345381	     -4.60142830	     -3.54193095	      0.57734387	      1.01702428	      0.04808517	    -19.76761675	      5.49926664	      2.09918411	     -6.30481642	     13.31498886	     -0.00000028	      0.00000000	     18.69162559	     -6.02406816	     -5.16201852	     -0.56334316	     -0.45567873	     -0.00000079	      0.00000000	    -17.15212250	      3.27299473	      4.37946387
